# xmcd CD database file
#
# Track frame offsets:
#	150
#	39460
#	80192
#	96315
#	149360
#
# Disc length: 2434 seconds
#
# Revision: 5
# Processed by: cddbd v1.5.2PL0 Copyright (c) Steve Scherf et al.
# Submitted via: CDex 1.51
#
DISCID=42098005
DTITLE=John Coltrane - Crescent
DYEAR=1964
DGENRE=Jazz
TTITLE0=Crescent
TTITLE1=Wise One
TTITLE2=Bessie's Blues
TTITLE3=Lonnie's Lament
TTITLE4=The Drum Thing
EXTD=YEAR: 1964
EXTT0=
EXTT1=
EXTT2=
EXTT3=
EXTT4=
PLAYORDER=
